<?xml version="1.0" standalone="no"?>
<!DOCTYPE svg PUBLIC "-//W3C//DTD SVG 20010904//EN"
 "http://www.w3.org/TR/2001/REC-SVG-20010904/DTD/svg10.dtd">
<svg version="1.0" xmlns="http://www.w3.org/2000/svg"
 width="750.000000pt" height="333.000000pt" viewBox="0 0 750.000000 333.000000"
 preserveAspectRatio="xMidYMid meet">

<g transform="translate(0.000000,333.000000) scale(0.100000,-0.100000)"
fill="#000000" stroke="none">
<path d="M1632 3015 c-13 -7 -38 -27 -56 -44 -18 -17 -36 -28 -41 -24 -4 5 -5
3 -2 -3 6 -10 -59 -82 -69 -76 -2 1 -3 0 -1 -3 5 -9 -77 -84 -87 -78 -6 3 -8
2 -3 -2 10 -11 -63 -86 -76 -78 -6 3 -7 2 -4 -4 8 -13 -67 -86 -78 -76 -4 5
-5 3 -2 -3 8 -14 -66 -87 -78 -77 -4 5 -5 3 -2 -3 7 -12 -65 -87 -76 -79 -4 3
-5 2 -2 -2 8 -10 -67 -83 -78 -76 -6 3 -7 2 -4 -4 8 -13 -67 -86 -78 -76 -4 5
-5 3 -2 -3 3 -6 -11 -28 -32 -48 -21 -21 -41 -34 -43 -29 -3 4 -4 3 -2 -3 3
-14 -70 -86 -79 -79 -4 3 -5 2 -2 -2 3 -4 -89 -102 -204 -217 -125 -127 -212
-221 -216 -237 -9 -36 18 -96 49 -111 15 -6 26 -14 26 -17 0 -3 52 -6 115 -6
l115 0 3 -585 c2 -553 3 -587 21 -613 10 -15 29 -30 42 -33 13 -3 24 -9 24
-13 0 -5 1856 -3 1932 2 9 1 15 3 13 6 -3 2 4 10 15 18 11 8 24 31 30 53 7 24
10 242 10 604 l0 566 111 0 c125 0 159 11 185 61 11 23 14 42 8 68 -4 20 -6
40 -5 44 1 5 -2 6 -7 3 -12 -7 -114 98 -105 109 5 4 3 5 -3 2 -14 -8 -57 36
-47 48 5 4 3 5 -3 2 -14 -8 -117 96 -107 108 5 4 3 5 -3 2 -14 -8 -57 36 -47
48 5 4 3 5 -3 2 -14 -8 -37 17 -26 28 4 5 2 5 -4 2 -14 -8 -57 36 -47 48 5 4
3 5 -3 2 -14 -8 -37 17 -26 28 4 5 2 5 -4 2 -14 -8 -57 36 -47 48 5 4 3 5 -3
2 -14 -8 -87 66 -77 78 5 4 3 5 -3 2 -14 -8 -37 17 -26 28 4 5 2 5 -4 2 -11
-7 -51 29 -46 42 1 3 -1 6 -5 6 -17 0 -33 17 -27 27 4 6 3 8 -3 5 -13 -8 -56
37 -46 48 5 4 3 5 -3 2 -14 -8 -87 66 -77 78 5 4 3 5 -3 2 -13 -7 -37 16 -29
26 3 4 2 5 -2 2 -10 -8 -83 67 -76 78 3 6 1 7 -4 4 -10 -6 -41 20 -42 36 -1 4
-3 6 -6 5 -9 -6 -84 76 -78 85 3 6 1 7 -4 4 -13 -8 -36 17 -25 28 4 5 2 5 -4
2 -11 -7 -51 29 -46 42 1 3 -1 6 -5 6 -17 0 -33 17 -27 27 4 6 3 8 -3 5 -13
-8 -56 37 -46 48 5 4 3 5 -3 2 -6 -3 -28 12 -49 33 -22 22 -45 40 -52 40 -7 0
-13 4 -13 8 0 12 -33 10 -58 -3z m101 -313 c32 -32 54 -62 50 -67 -5 -4 -3 -5
3 -2 13 8 807 -786 797 -798 -4 -4 -3 -5 3 -2 6 3 26 -10 45 -29 l34 -35 -35
2 c-46 2 -83 -13 -109 -47 -21 -27 -21 -30 -21 -615 l0 -589 -210 0 -210 0 0
541 0 541 -29 29 -29 29 -354 0 c-294 0 -357 -2 -374 -15 -12 -8 -23 -12 -26
-10 -10 10 -11 -36 -15 -568 l-3 -547 -210 0 -210 0 0 589 0 589 -25 30 c-28
34 -66 50 -109 46 -28 -3 -25 1 44 71 40 41 78 71 84 68 6 -3 7 -2 3 2 -10 11
143 166 156 158 6 -3 7 -2 4 4 -8 13 227 246 238 236 4 -4 5 -3 2 3 -8 14 226
247 238 237 4 -4 5 -3 2 3 -8 13 136 157 147 147 4 -4 6 -1 4 7 -2 9 3 14 12
12 8 -2 12 0 8 4 -9 9 10 34 26 34 6 0 37 -26 69 -58z m137 -1712 l0 -470
-205 0 -205 0 0 470 0 470 205 0 205 0 0 -470z"/>
<path d="M1745 2660 c10 -11 20 -20 23 -20 3 0 -3 9 -13 20 -10 11 -20 20 -23
20 -3 0 3 -9 13 -20z"/>
<path d="M1560 2646 c0 -2 8 -10 18 -17 15 -13 16 -12 3 4 -13 16 -21 21 -21
13z"/>
<path d="M1825 2580 c10 -11 20 -20 23 -20 3 0 -3 9 -13 20 -10 11 -20 20 -23
20 -3 0 3 -9 13 -20z"/>
<path d="M1480 2566 c0 -2 8 -10 18 -17 15 -13 16 -12 3 4 -13 16 -21 21 -21
13z"/>
<path d="M1970 2436 c0 -2 8 -10 18 -17 15 -13 16 -12 3 4 -13 16 -21 21 -21
13z"/>
<path d="M1320 2406 c0 -2 8 -10 18 -17 15 -13 16 -12 3 4 -13 16 -21 21 -21
13z"/>
<path d="M2060 2346 c0 -2 8 -10 18 -17 15 -13 16 -12 3 4 -13 16 -21 21 -21
13z"/>
<path d="M1240 2326 c0 -2 8 -10 18 -17 15 -13 16 -12 3 4 -13 16 -21 21 -21
13z"/>
<path d="M1160 2246 c0 -2 8 -10 18 -17 15 -13 16 -12 3 4 -13 16 -21 21 -21
13z"/>
<path d="M2225 2180 c10 -11 20 -20 23 -20 3 0 -3 9 -13 20 -10 11 -20 20 -23
20 -3 0 3 -9 13 -20z"/>
<path d="M1085 2171 c-3 -5 -2 -12 3 -15 5 -3 9 1 9 9 0 17 -3 19 -12 6z"/>
<path d="M2300 2106 c0 -2 8 -10 18 -17 15 -13 16 -12 3 4 -13 16 -21 21 -21
13z"/>
<path d="M2385 2020 c10 -11 20 -20 23 -20 3 0 -3 9 -13 20 -10 11 -20 20 -23
20 -3 0 3 -9 13 -20z"/>
<path d="M2465 1940 c10 -11 20 -20 23 -20 3 0 -3 9 -13 20 -10 11 -20 20 -23
20 -3 0 3 -9 13 -20z"/>
<path d="M2545 1860 c10 -11 20 -20 23 -20 3 0 -3 9 -13 20 -10 11 -20 20 -23
20 -3 0 3 -9 13 -20z"/>
<path d="M763 1837 c0 -8 6 -14 14 -14 9 0 10 4 2 14 -6 7 -12 13 -14 13 -1 0
-2 -6 -2 -13z"/>
<path d="M2485 1770 c-3 -6 1 -7 9 -4 18 7 21 14 7 14 -6 0 -13 -4 -16 -10z"/>
<path d="M4073 2699 c-22 -4 -59 -17 -81 -28 -22 -11 -43 -17 -47 -13 -5 4 -5
2 -2 -4 4 -7 -1 -18 -10 -25 -9 -8 -24 -32 -34 -54 -16 -35 -19 -70 -19 -306
0 -343 9 -376 120 -435 54 -29 220 -27 276 3 90 48 124 120 124 263 l0 70
-110 0 -110 0 0 -84 c0 -96 -11 -136 -38 -136 -40 0 -42 13 -42 304 0 155 4
286 8 291 9 14 65 18 57 5 -3 -6 -1 -10 4 -10 7 0 11 -39 11 -110 l0 -110 110
0 110 0 0 85 c0 112 -15 179 -51 219 -16 18 -25 36 -21 41 4 4 0 5 -8 4 -8 -2
-35 5 -60 15 -52 21 -126 27 -187 15z"/>
<path d="M5483 2700 c-23 -5 -55 -16 -72 -25 -17 -8 -31 -13 -31 -9 0 4 -14
-11 -31 -32 -17 -22 -34 -38 -38 -37 -12 3 -15 -63 -15 -347 -1 -279 0 -286
22 -323 12 -21 19 -43 16 -49 -4 -6 -3 -8 3 -5 14 9 55 -22 47 -35 -4 -6 -1
-9 7 -6 8 3 34 -1 58 -9 58 -17 148 -17 201 2 23 8 47 12 53 8 6 -3 7 -1 3 5
-4 6 6 18 24 27 16 8 29 21 27 28 -1 6 3 11 10 10 8 -2 10 4 6 14 -4 9 -2 14
3 10 14 -8 15 4 20 303 6 317 2 342 -60 405 -57 56 -162 84 -253 65z m92 -162
c3 -13 4 -146 3 -297 -3 -243 -5 -275 -20 -284 -12 -8 -21 -7 -32 2 -14 12
-16 50 -16 295 0 206 3 285 12 294 19 19 47 14 53 -10z"/>
<path d="M3396 2682 c-3 -5 -17 -100 -31 -213 -15 -112 -29 -211 -32 -219 -3
-8 -5 -21 -4 -27 1 -10 -18 -167 -44 -355 l-5 -38 114 0 113 0 7 46 c3 26 6
60 6 76 0 28 2 29 43 26 l42 -3 1 -70 1 -70 116 -3 116 -3 -2 60 c-1 32 -4 58
-7 56 -3 -2 -29 162 -59 363 -29 202 -55 370 -58 375 -6 10 -311 9 -317 -1z
m174 -259 c-1 -27 -1 -50 0 -53 6 -12 26 -226 23 -232 -7 -13 -73 -9 -73 4 0
19 31 281 36 306 8 38 16 24 14 -25z"/>
<path d="M4445 2684 c-6 -2 -9 -37 -7 -84 l3 -79 67 -3 67 -3 3 -342 2 -343
110 0 110 0 0 345 0 345 65 0 65 0 0 85 0 85 -237 -1 c-131 0 -242 -2 -248 -5z"/>
<path d="M4985 2684 c-7 -3 -9 -153 -7 -429 l2 -425 110 0 110 0 0 430 0 430
-102 -1 c-57 0 -107 -2 -113 -5z"/>
<path d="M5890 2260 l0 -430 90 0 90 0 0 187 c0 102 2 184 5 181 3 -2 29 -85
59 -184 l53 -179 97 -3 96 -3 0 431 0 430 -90 0 -90 0 0 -187 c0 -105 -4 -183
-9 -177 -4 5 -34 89 -65 187 l-57 177 -89 0 -90 0 0 -430z"/>
<path d="M650 2106 c0 -2 7 -7 16 -10 8 -3 12 -2 9 4 -6 10 -25 14 -25 6z"/>
<path d="M586 2018 c3 -5 10 -6 15 -3 13 9 11 12 -6 12 -8 0 -12 -4 -9 -9z"/>
<path d="M5270 1389 c0 -4 -16 -10 -35 -13 -20 -4 -51 -22 -74 -44 -51 -48
-65 -101 -57 -207 9 -112 10 -114 17 -110 3 3 12 -7 19 -20 7 -14 37 -41 66
-61 30 -20 51 -41 47 -47 -3 -6 -1 -7 5 -3 12 7 84 -37 114 -71 10 -11 20 -45
24 -78 7 -58 7 -60 -12 -45 -18 14 -18 14 -5 -2 18 -24 7 -48 -24 -48 -33 0
-45 31 -45 116 l0 64 -100 0 -100 0 0 -72 c0 -88 13 -138 45 -176 78 -93 294
-101 394 -16 33 28 42 44 52 92 14 68 6 177 -17 241 -17 48 -57 82 -202 172
-45 28 -62 44 -58 55 3 9 2 12 -4 9 -13 -8 -11 83 2 108 6 11 18 17 31 15 19
-3 22 -10 25 -63 1 -33 4 -64 6 -70 2 -6 44 -9 106 -7 l103 3 -6 78 c-2 43
-12 92 -21 108 -8 17 -12 34 -8 38 4 3 2 5 -3 3 -18 -5 -77 24 -64 33 7 4 3 7
-12 7 -13 1 -66 4 -116 9 -51 5 -93 5 -93 2z"/>
<path d="M4081 1375 c-24 -8 -49 -13 -55 -12 -5 1 -10 -3 -11 -8 0 -6 -11 -22
-23 -35 -56 -59 -57 -65 -62 -367 -3 -154 -2 -279 1 -277 4 2 9 -9 12 -24 9
-42 49 -95 90 -117 28 -15 36 -25 32 -40 -3 -11 -2 -14 1 -7 3 6 11 9 16 6 7
-4 8 -2 4 5 -6 8 0 10 18 6 14 -3 37 -7 51 -10 14 -3 53 -1 88 5 34 6 65 11
70 11 4 -1 16 8 27 19 11 11 27 17 37 14 11 -4 14 -3 7 3 -8 5 -3 20 16 45 15
21 30 35 33 32 3 -3 4 133 4 303 l-2 309 -34 56 c-19 31 -39 56 -45 55 -6 -1
-10 4 -8 11 1 8 -2 11 -7 8 -5 -3 -28 1 -51 9 -52 18 -150 18 -209 0z m127
-137 c9 -9 12 -88 12 -296 0 -259 -1 -284 -16 -278 -15 6 -15 4 -3 -10 11 -14
10 -16 -11 -12 -14 1 -28 8 -32 13 -12 16 -10 553 2 576 12 22 30 25 48 7z"/>
<path d="M3284 1372 c4 -3 14 -7 22 -8 9 -1 13 0 10 4 -4 3 -14 7 -22 8 -9 1
-13 0 -10 -4z"/>
<path d="M3566 1372 c-3 -5 1 -9 9 -9 8 0 12 4 9 9 -3 4 -7 8 -9 8 -2 0 -6 -4
-9 -8z"/>
<path d="M3330 941 c0 -271 4 -431 10 -433 5 -1 55 -2 110 0 l100 3 2 182 3
182 33 3 32 3 0 -185 0 -186 110 0 110 0 0 430 0 430 -110 0 -110 0 0 -150 0
-150 -35 0 -35 0 0 150 0 150 -110 0 -110 0 0 -429z"/>
<path d="M4518 1360 c-1 -5 -1 -166 2 -357 5 -302 8 -352 23 -380 23 -43 21
-50 -5 -27 l-23 19 19 -22 c10 -12 21 -21 25 -21 3 1 28 -12 55 -30 28 -18 58
-32 68 -32 10 0 18 -4 18 -8 0 -5 13 -7 29 -4 16 2 31 -1 35 -6 4 -6 18 -7 39
-2 17 5 52 14 77 20 60 16 100 48 128 102 22 44 22 52 22 402 l0 356 -110 0
-110 0 0 -352 c0 -194 -4 -359 -9 -366 -5 -8 -17 -12 -27 -10 -18 3 -19 20
-21 348 -2 190 -3 353 -3 363 0 15 -12 17 -114 17 -66 0 -116 -4 -118 -10z"/>
<path d="M5680 940 l0 -430 190 0 190 0 0 85 0 85 -80 0 -80 0 0 100 0 100 70
0 70 0 0 80 0 80 -70 0 -70 0 0 81 0 81 69 -4 c67 -3 88 4 85 30 -1 6 -2 41
-3 77 l-1 65 -185 0 -185 0 0 -430z"/>
<path d="M6060 1050 c-9 -6 -10 -10 -3 -10 6 0 15 5 18 10 8 12 4 12 -15 0z"/>
<path d="M3940 610 c6 -11 13 -20 16 -20 2 0 0 9 -6 20 -6 11 -13 20 -16 20
-2 0 0 -9 6 -20z"/>
<path d="M4860 480 c-9 -6 -10 -10 -3 -10 6 0 15 5 18 10 8 12 4 12 -15 0z"/>
</g>
</svg>
