<?xml version="1.0" encoding="UTF-8"?>
<!DOCTYPE svg PUBLIC "-//W3C//DTD SVG 1.1//EN" "http://www.w3.org/Graphics/SVG/1.1/DTD/svg11.dtd">
<svg xmlns="http://www.w3.org/2000/svg" version="1.1" width="512px" height="512px" style="shape-rendering:geometricPrecision; text-rendering:geometricPrecision; image-rendering:optimizeQuality; fill-rule:evenodd; clip-rule:evenodd" xmlns:xlink="http://www.w3.org/1999/xlink">
<g><path style="opacity:0.987" fill="#000000" d="M 253.5,46.5 C 257.769,46.7339 261.769,47.9006 265.5,50C 330.667,115.167 395.833,180.333 461,245.5C 465.236,254.222 464.069,262.055 457.5,269C 456.167,269.667 454.833,270.333 453.5,271C 440.838,271.5 428.171,271.667 415.5,271.5C 415.667,332.168 415.5,392.834 415,453.5C 413.167,458 410,461.167 405.5,463C 305.5,463.667 205.5,463.667 105.5,463C 101,461.167 97.8333,458 96,453.5C 95.5,392.834 95.3333,332.168 95.5,271.5C 82.8289,271.667 70.1623,271.5 57.5,271C 48.5178,266.527 45.3511,259.36 48,249.5C 48.6667,248.167 49.3333,246.833 50,245.5C 115.167,180.333 180.333,115.167 245.5,50C 248.158,48.522 250.825,47.3554 253.5,46.5 Z M 254.5,87.5 C 305.917,137.416 356.917,187.916 407.5,239C 402.833,239.333 398.167,239.667 393.5,240C 389,241.833 385.833,245 384,249.5C 383.5,310.166 383.333,370.832 383.5,431.5C 362.167,431.5 340.833,431.5 319.5,431.5C 319.667,376.166 319.5,320.832 319,265.5C 317.167,261 314,257.833 309.5,256C 273.5,255.333 237.5,255.333 201.5,256C 197,257.833 193.833,261 192,265.5C 191.5,320.832 191.333,376.166 191.5,431.5C 170.167,431.5 148.833,431.5 127.5,431.5C 127.667,370.832 127.5,310.166 127,249.5C 125.167,245 122,241.833 117.5,240C 112.833,239.667 108.167,239.333 103.5,239C 154.035,188.632 204.368,138.132 254.5,87.5 Z M 223.5,287.5 C 244.833,287.5 266.167,287.5 287.5,287.5C 287.5,335.5 287.5,383.5 287.5,431.5C 266.167,431.5 244.833,431.5 223.5,431.5C 223.5,383.5 223.5,335.5 223.5,287.5 Z"/></g>
</svg>
